<svg xmlns="http://www.w3.org/2000/svg" width="750" height="623"><defs><linearGradient id="a" x1="0%" x2="22.495%" y1="97.437%" y2="0%"><stop offset="0%" stop-color="#FF8F5A"/><stop offset="99%" stop-color="#FF2F96"/></linearGradient></defs><path fill-rule="evenodd" fill="#6055C4" d="M322.435 32.949c87.017-41.143 169.136-41.27 237.792-10.385 68.833 30.634 124.204 92.28 161.814 168.891 36.089 77.372 36.051 160.478 6.577 227.706-29.883 68.23-79.62 119.671-147.396 156.383-35.894 18.485-73.623 31.149-121.588 38.922-47.332 7.661-104.899 10.43-165.891 6.479-121.038-7.601-256.692-43.286-285.299-123.777-16.212-39.967-6.036-85.783 14.12-131.889 20.487-46.174 50.953-92.638 82.941-135.458 32.318-42.887 66.158-82.129 100.997-115.41 35.17-33.347 71.338-60.733 115.933-81.462z"/><path fill="url(#a)" d="M322.435 32.949c87.017-41.143 169.136-41.27 237.792-10.385 68.833 30.634 124.204 92.28 161.814 168.891 36.089 77.372 36.051 160.478 6.577 227.706-29.883 68.23-79.62 119.671-147.396 156.383-35.894 18.485-73.623 31.149-121.588 38.922-47.332 7.661-104.899 10.43-165.891 6.479-121.038-7.601-256.692-43.286-285.299-123.777-16.212-39.967-6.036-85.783 14.12-131.889 20.487-46.174 50.953-92.638 82.941-135.458 32.318-42.887 66.158-82.129 100.997-115.41 35.17-33.347 71.338-60.733 115.933-81.462z"/></svg>